PathFileType	4	(X/Y/Z)	Kaydara	
DataRate	CameraRate	NumFrames	NumMarkers	Units	OrigDataRate	OrigDataStartFrame	OrigNumFrames	
60.00	60.00	4	74	mm	60.00	1149	141	
Frame#	Time	Z_lasi			Z_rasi			Z_rpsi			Z_lpsi			Z_fneck			Z_bneck			Z_fhead			Z_rhead			Z_lhead			Z_rshld			Z_relbtop			Z_relbext			Z_relblow			Z_rwrext			Z_rwrtop			Z_rwrlow			Z_lshld			Z_lelbext			Z_lelblow			Z_lelbtop			Z_lwrext			Z_lwrtop			Z_lwrlow			Z_rtopleg			Z_ltopleg			Z_rkneefr			Z_rkneebk			Z_rkneeis			Z_lkneefr			Z_lknssbk			Z_lkneeis			Z_rankfr			Z_rankis			Z_rankbk			Z_lankfr			Z_lankbk			Z_lankis			A_lasi			A_rasi			A_rpsi			A_lpsi			A_fneck			A_bneck			A_fhead			A_rhead			A_lhead			A_rshld			A_relbtop			A_relbext			A_relblow			A_rwrext			A_rwrtop			A_rwrlow			A_lshld			A_lelbext			A_lelblow			A_lelbtop			A_lwrext			A_lwrtop			A_lwrlow			A_rtopleg			A_ltopleg			A_rkneefr			A_rkneebk			A_rkneeis			A_lkneefr			A_lknssbk			A_lkneeis			A_rankfr			A_rankis			A_rankbk			A_lankfr			A_lankbk			A_lankis			
		X1	Y1	Z1	X2	Y2	Z2	X3	Y3	Z3	X4	Y4	Z4	X5	Y5	Z5	X6	Y6	Z6	X7	Y7	Z7	X8	Y8	Z8	X9	Y9	Z9	X10	Y10	Z10	X11	Y11	Z11	X12	Y12	Z12	X13	Y13	Z13	X14	Y14	Z14	X15	Y15	Z15	X16	Y16	Z16	X17	Y17	Z17	X18	Y18	Z18	X19	Y19	Z19	X20	Y20	Z20	X21	Y21	Z21	X22	Y22	Z22	X23	Y23	Z23	X24	Y24	Z24	X25	Y25	Z25	X26	Y26	Z26	X27	Y27	Z27	X28	Y28	Z28	X29	Y29	Z29	X30	Y30	Z30	X31	Y31	Z31	X32	Y32	Z32	X33	Y33	Z33	X34	Y34	Z34	X35	Y35	Z35	X36	Y36	Z36	X37	Y37	Z37	X38	Y38	Z38	X39	Y39	Z39	X40	Y40	Z40	X41	Y41	Z41	X42	Y42	Z42	X43	Y43	Z43	X44	Y44	Z44	X45	Y45	Z45	X46	Y46	Z46	X47	Y47	Z47	X48	Y48	Z48	X49	Y49	Z49	X50	Y50	Z50	X51	Y51	Z51	X52	Y52	Z52	X53	Y53	Z53	X54	Y54	Z54	X55	Y55	Z55	X56	Y56	Z56	X57	Y57	Z57	X58	Y58	Z58	X59	Y59	Z59	X60	Y60	Z60	X61	Y61	Z61	X62	Y62	Z62	X63	Y63	Z63	X64	Y64	Z64	X65	Y65	Z65	X66	Y66	Z66	X67	Y67	Z67	X68	Y68	Z68	X69	Y69	Z69	X70	Y70	Z70	X71	Y71	Z71	X72	Y72	Z72	X73	Y73	Z73	X74	Y74	Z74	

89	19.133	-236.20125	1079.17992	673.61702	-302.10491	1087.20566	477.09278	-136.86067	1114.04663	385.62721	-55.07694	1100.45822	618.63682	-234.98505	1452.13257	556.48563	-122.58626	1509.61060	546.79169	-311.66477	1659.57428	532.20459	-163.40151	1646.39038	454.03095	-155.97380	1655.52231	601.56708	-193.70033	1436.67145	343.36544	-159.89763	1117.00851	262.02188	-133.18201	1099.83437	314.89994	-225.39608	1126.78841	301.54642	-258.18325	889.48906	270.88743	-289.80558	902.84721	301.71843	-264.49591	897.56889	336.31653	-121.21008	1444.12308	733.69057	-88.33277	1126.23947	741.44920	-148.76759	1148.44017	804.12964	-79.75048	1145.31250	809.82201	-229.41170	899.75426	787.42172	-218.34684	889.37584	832.39479	-172.63166	882.48642	824.03221	-190.41086	924.16557	343.60725	-143.08553	895.82184	706.36993	-249.49881	420.82409	398.61488	-180.76897	450.51685	346.76765	-184.18150	430.70221	471.05759	-190.19005	448.01788	676.61201	-85.98197	473.19199	657.20596	-185.60770	442.40826	583.58120	-205.73750	179.19947	375.79525	-181.04172	175.10918	437.64229	-129.46362	172.27962	367.08870	-124.99577	165.04833	675.09972	-71.25205	166.42225	613.70296	-151.11874	173.32407	607.49187	-975.71281	1034.46213	469.80896	-964.85786	1041.79886	629.47407	-1122.50328	1030.86266	649.63364	-1098.99147	1036.74973	466.88656	-1051.50620	1371.41174	567.03407	-1185.99358	1414.44046	558.02620	-969.32060	1568.63052	590.49038	-1123.71193	1549.93332	663.81859	-1113.13683	1557.94220	500.91141	-1126.62582	1346.88431	737.79289	-980.50301	1130.22034	758.73642	-997.23778	1067.59926	741.94695	-978.82057	1135.86731	699.62273	-851.36154	1270.24178	704.65515	-888.67317	1297.50870	704.51256	-898.21091	1288.30078	666.41624	-1088.48167	1352.34085	389.67419	-1037.98790	1045.68832	339.90086	-1003.29285	1068.99864	402.93453	-992.83119	1063.93295	349.68998	-926.84555	881.43272	472.77405	-897.78687	876.72737	442.88498	-875.93353	902.28813	474.18186	-1058.02109	874.96979	730.51720	-1025.79880	889.15756	393.35537	-1020.30701	451.33278	640.33211	-1127.90253	487.53777	684.56749	-1106.83258	486.54839	566.22272	-1005.40833	464.10450	508.07602	-1090.82726	480.61867	412.92576	-1112.82402	480.52082	537.12044	-1097.08221	166.02177	663.19908	-1130.16121	163.27213	597.24583	-1178.72681	155.67648	666.28693	-1065.54375	166.19942	456.78665	-1126.78749	168.83993	421.46534	-1124.89548	174.07892	510.91290 
90	19.150	-236.59397	1079.23653	673.71887	-302.28487	1087.20383	477.00203	-137.07440	1114.00940	385.52265	-55.21976	1100.44624	618.52665	-235.10311	1452.01431	556.33675	-122.97047	1509.61990	546.83182	-312.42510	1659.07578	532.18452	-163.96824	1646.74881	454.25686	-156.67603	1655.50491	601.78215	-193.87909	1436.61865	343.21926	-160.05600	1116.94702	261.93268	-133.22758	1099.81094	314.79391	-225.52080	1126.74507	301.53341	-258.26405	889.41849	270.85993	-289.90259	902.77115	301.67791	-264.58441	897.55081	336.30001	-121.26376	1444.08691	733.57544	-88.12704	1126.24413	741.26328	-148.55633	1148.29361	803.84552	-79.58265	1145.35042	809.63989	-228.32590	899.37286	787.31148	-217.45432	889.01001	832.28729	-171.56651	882.03606	824.29222	-190.60658	924.14009	343.55804	-143.20339	895.87074	706.25343	-249.64321	420.77831	398.56194	-180.91532	450.50564	346.74149	-184.33237	430.67783	471.07227	-190.24025	447.99175	676.57074	-85.95985	473.24890	657.03857	-185.68718	442.41005	583.56487	-205.77614	179.15968	375.81669	-181.04992	175.11608	437.63035	-129.51012	172.28170	367.09190	-125.36283	165.19533	675.34538	-71.26661	166.43158	613.66917	-151.14969	173.34538	607.52270	-975.61501	1034.39804	469.37794	-964.39209	1041.62514	629.12903	-1121.88332	1030.92087	649.92294	-1099.05754	1036.66382	467.09244	-1050.17731	1371.83136	566.79737	-1185.17334	1413.25439	557.98016	-970.03082	1570.42862	590.15656	-1124.05945	1549.21585	663.86208	-1113.72162	1557.92343	501.17546	-1124.93874	1347.30011	737.85973	-981.36742	1129.09935	758.41545	-997.46788	1066.73752	740.78880	-981.14510	1134.54681	700.04555	-855.19485	1271.12892	704.28894	-892.62802	1297.91443	705.73563	-903.32382	1289.54239	667.62024	-1088.27354	1352.21283	389.49242	-1038.48671	1045.38742	339.83746	-1003.37761	1068.92761	402.62249	-993.33267	1063.65135	349.33414	-926.72585	881.51886	472.73220	-897.70195	876.89285	442.70958	-875.85388	902.56752	473.95119	-1057.35741	874.92203	730.50667	-1025.97679	889.19212	393.23425	-1020.07210	451.31767	640.23003	-1127.55249	487.61024	684.60144	-1106.66718	486.59412	566.20888	-1005.16113	464.12720	507.89814	-1090.81833	480.65117	412.92530	-1112.63428	480.54333	537.17354	-1096.97227	166.05038	663.16429	-1130.13252	163.28623	597.29752	-1178.56972	155.79116	666.38756	-1065.51659	166.20996	456.72585	-1126.78596	168.86347	421.46835	-1124.79630	174.11001	510.91606 
91	19.167	-237.27615	1079.38942	674.07059	-302.44129	1087.19772	476.97697	-137.25635	1113.98193	385.46455	-55.38842	1100.41359	618.45848	-235.19835	1451.89865	556.25557	-122.86355	1509.73877	546.61366	-313.13381	1658.57208	532.38605	-164.58912	1647.07886	454.41536	-157.47060	1655.49194	602.00340	-194.07948	1436.58493	343.15987	-160.15842	1116.89316	261.88120	-133.27823	1099.80042	314.72906	-225.76019	1126.77231	301.47732	-258.32571	889.34731	270.83115	-289.94776	902.68921	301.65867	-264.63770	897.48238	336.31195	-121.34653	1444.08722	733.50967	-87.82359	1126.26015	741.01875	-148.35386	1148.17284	803.67256	-79.36561	1145.38834	809.43474	-227.25048	898.94272	787.33086	-216.23417	888.52097	832.33017	-170.34496	881.82846	824.12720	-190.83233	924.08875	343.60283	-143.39612	895.85335	706.20041	-249.73450	420.71419	398.55450	-181.03230	450.50293	346.73931	-184.57773	430.73925	471.15242	-190.26293	447.97539	676.55357	-85.88876	473.30448	656.86668	-185.76199	442.40910	583.55297	-205.80769	179.15554	375.82279	-181.11668	175.09356	437.66426	-129.55388	172.28785	367.08942	-125.43318	165.25791	675.39215	-71.25772	166.43818	613.66203	-151.14285	173.34661	607.51598	-975.32578	1034.41208	468.79013	-963.77197	1041.37955	628.65807	-1120.70480	1031.17325	650.14053	-1098.86986	1036.95824	467.32994	-1048.79959	1372.46063	566.82091	-1184.19983	1412.23129	558.00957	-970.81985	1572.50137	590.21423	-1124.59717	1548.83850	663.89076	-1114.20311	1557.91840	500.93758	-1123.40881	1347.82532	737.90695	-982.46544	1127.95792	757.85973	-998.13942	1065.75668	739.29802	-982.81685	1134.30115	700.21484	-858.60153	1271.87233	703.63434	-896.75911	1298.25775	706.87477	-908.38440	1290.62378	668.97690	-1087.43713	1352.32086	389.42513	-1039.10690	1045.24948	339.85252	-1003.61130	1068.70934	402.35329	-993.75053	1063.48961	348.93707	-926.90666	881.50932	472.28783	-897.97546	876.84128	442.32201	-875.99190	902.51770	473.43529	-1056.72523	874.90189	730.50766	-1026.33507	889.24698	393.13484	-1019.83772	451.30936	639.97253	-1126.96213	487.60300	684.47037	-1106.59103	486.61835	566.21849	-1004.97574	464.11240	507.57500	-1090.99380	480.65994	412.91828	-1112.55005	480.54451	537.17804	-1096.89713	166.05904	663.14354	-1130.12192	163.34593	597.30175	-1178.44299	155.88087	666.48918	-1065.54222	166.24628	456.63742	-1126.83556	168.87796	421.44981	-1124.21814	173.81891	510.54810 
92	19.183	-236.69998	1079.18945	673.58170	-302.58547	1087.20322	476.97716	-137.37894	1113.96591	385.37861	-55.50843	1100.38971	618.40263	-235.27235	1451.79672	556.18809	-123.24090	1509.81293	546.71387	-313.73598	1658.09738	532.50511	-165.13786	1647.29156	454.61514	-158.36127	1655.45166	602.19284	-194.24179	1436.51993	343.14251	-160.24368	1116.85997	261.85568	-133.37697	1099.78035	314.70726	-225.84867	1126.75079	301.48727	-258.35907	889.30695	270.84234	-289.97692	902.63161	301.63515	-264.68653	897.45178	336.32183	-121.35516	1444.07959	733.45276	-87.71475	1126.29272	740.93033	-148.12014	1148.09937	803.56956	-79.12640	1145.42366	809.29489	-226.08482	898.34618	787.38060	-215.02996	888.19260	832.48222	-169.05210	881.71165	824.13048	-191.06901	924.08218	343.59501	-143.51458	895.87341	706.13663	-249.82908	420.67604	398.61729	-181.15803	450.51239	346.78707	-184.76404	430.78815	471.25996	-190.24632	447.93705	676.53946	-85.90915	473.33664	656.81808	-185.78115	442.40009	583.53096	-205.84213	179.13141	375.84766	-181.14040	175.08314	437.67418	-129.59398	172.30684	367.09072	-124.42210	164.82620	674.76822	-71.28317	166.47608	613.62843	-151.14098	173.34703	607.52792	-975.14877	1034.47586	468.34591	-963.02986	1041.19781	628.07346	-1119.81056	1031.50208	650.52536	-1098.64777	1037.16820	467.67300	-1047.43607	1373.02078	566.88374	-1183.04909	1411.37558	558.20129	-971.84875	1574.47556	590.19821	-1125.18784	1548.75778	663.86597	-1114.94614	1558.05115	500.91530	-1122.06528	1348.28186	738.06541	-983.64044	1126.92711	757.37213	-999.08234	1065.04219	737.85881	-985.03342	1133.02429	699.19792	-862.04178	1272.49496	703.57521	-900.40642	1298.32169	707.73804	-912.52190	1291.24207	669.77539	-1086.30005	1352.65762	389.56558	-1039.63478	1045.32021	339.72443	-1003.38684	1069.00810	401.88290	-994.13986	1063.42201	348.46333	-927.27249	881.38512	471.79382	-898.51433	876.55617	441.81496	-876.31744	902.23061	472.72614	-1056.02806	874.91753	730.56427	-1026.84349	889.39972	392.89368	-1019.69131	451.29471	639.69086	-1126.75453	487.65976	684.59824	-1106.66588	486.66077	566.24767	-1004.95941	464.16611	507.22462	-1091.32103	480.68142	412.90115	-1112.56714	480.55599	537.13066	-1096.82007	166.09484	663.08998	-1130.15488	163.36891	597.29065	-1178.28056	155.91185	666.56761	-1065.58105	166.31327	456.49010	-1126.93657	168.91020	421.37657	-1124.33525	173.96143	510.58784 
